<svg width="32" height="32" viewBox="0 0 32 32" fill="none" xmlns="http://www.w3.org/2000/svg">
  <!-- Background circle for better contrast -->
  <circle cx="16" cy="16" r="16" fill="#2d3748"/>
  
  <!-- Paddle face - distinctive pickleball paddle shape -->
  <path 
    d="M16 6C19 6 21 8 21 11V19C21 22 19 24 16 24C13 24 11 22 11 19V11C11 8 13 6 16 6Z" 
    fill="white"
  />
  
  <!-- Handle -->
  <rect 
    x="14.5" 
    y="24" 
    width="3" 
    height="2" 
    fill="white" 
    rx="1.5"
  />
  
  <!-- Surface texture lines for realism -->
  <line x1="13.5" y1="9" x2="18.5" y2="9" stroke="#2d3748" strokeWidth="0.3"/>
  <line x1="13" y1="11" x2="19" y2="11" stroke="#2d3748" strokeWidth="0.3"/>
  <line x1="13" y1="13" x2="19" y2="13" stroke="#2d3748" strokeWidth="0.3"/>
  <line x1="13" y1="15" x2="19" y2="15" stroke="#2d3748" strokeWidth="0.3"/>
  <line x1="13" y1="17" x2="19" y2="17" stroke="#2d3748" strokeWidth="0.3"/>
  <line x1="13" y1="19" x2="19" y2="19" stroke="#2d3748" strokeWidth="0.3"/>
  <line x1="13.5" y1="21" x2="18.5" y2="21" stroke="#2d3748" strokeWidth="0.3"/>
  
  <!-- Sweet spot indicator -->
  <circle cx="16" cy="15" r="2.5" fill="none" stroke="#2d3748" strokeWidth="0.5"/>
</svg>